<svg width="200" height="200" xmlns="http://www.w3.org/2000/svg">
  <rect width="100%" height="100%" fill="transparent"/>

  <!-- Head outline -->
  <circle cx="100" cy="100" r="60" fill="#ffd699" stroke="#333" stroke-width="2"/>

  <!-- Pain indicators -->
  <path d="M70,60 L80,70" stroke="#ff5252" stroke-width="2"/>
  <path d="M80,60 L70,70" stroke="#ff5252" stroke-width="2"/>

  <path d="M120,60 L130,70" stroke="#ff5252" stroke-width="2"/>
  <path d="M130,60 L120,70" stroke="#ff5252" stroke-width="2"/>

  <path d="M95,50 L105,60" stroke="#ff5252" stroke-width="2"/>
  <path d="M105,50 L95,60" stroke="#ff5252" stroke-width="2"/>

  <!-- Throbbing effect -->
  <path d="M40,100 Q45,90 50,100 Q55,110 60,100" stroke="#ff5252" stroke-width="3" fill="none"/>
  <path d="M140,100 Q145,90 150,100 Q155,110 160,100" stroke="#ff5252" stroke-width="3" fill="none"/>

  <!-- Pulsing rings around head -->
  <circle cx="100" cy="100" r="65" stroke="#ff5252" stroke-width="1" fill="none" stroke-dasharray="3,3"/>
  <circle cx="100" cy="100" r="70" stroke="#ff5252" stroke-width="1" fill="none" stroke-dasharray="3,3"/>
  <circle cx="100" cy="100" r="75" stroke="#ff5252" stroke-width="1" fill="none" stroke-dasharray="3,3"/>

  <!-- Face features -->
  <circle cx="80" cy="90" r="3" fill="#333"/> <!-- Left eye -->
  <circle cx="120" cy="90" r="3" fill="#333"/> <!-- Right eye -->

  <!-- Frown -->
  <path d="M80,120 Q100,110 120,120" fill="none" stroke="#333" stroke-width="1.5"/>

  <!-- Furrowed brow -->
  <path d="M70,80 Q80,75 90,80" fill="none" stroke="#333" stroke-width="1.5"/>
  <path d="M110,80 Q120,75 130,80" fill="none" stroke="#333" stroke-width="1.5"/>

  <!-- Text label -->
  <text x="100" y="180" font-family="Arial" font-size="16" text-anchor="middle" fill="#333" font-weight="bold">HEADACHE</text>
</svg>
